{
	"asset":{
		"generator":"Khronos glTF Blender I/O v3.6.27",
		"version":"2.0"
	},
	"scene":0,
	"scenes":[
		{
			"name":"Scene",
			"nodes":[
				0,
				1,
				4
			]
		}
	],
	"nodes":[
		{
			"mesh":0,
			"name":"Cube",
			"scale":[
				1,
				0.19999998807907104,
				1
			]
		},
		{
			"mesh":1,
			"name":"pump_static",
			"translation":[
				0,
				2.6000001430511475,
				0
			]
		},
		{
			"name":"Bone"
		},
		{
			"mesh":2,
			"name":"pump_move",
			"skin":0
		},
		{
			"children":[
				3,
				2
			],
			"name":"Armature",
			"rotation":[
				-0.7071068286895752,
				0,
				0,
				0.7071068286895752
			],
			"translation":[
				0,
				2.4000000953674316,
				0
			]
		}
	],
	"animations":[
		{
			"channels":[
				{
					"sampler":0,
					"target":{
						"node":2,
						"path":"translation"
					}
				},
				{
					"sampler":1,
					"target":{
						"node":2,
						"path":"rotation"
					}
				},
				{
					"sampler":2,
					"target":{
						"node":2,
						"path":"scale"
					}
				}
			],
			"name":"ArmatureAction",
			"samplers":[
				{
					"input":15,
					"interpolation":"STEP",
					"output":16
				},
				{
					"input":15,
					"interpolation":"STEP",
					"output":17
				},
				{
					"input":15,
					"interpolation":"STEP",
					"output":18
				}
			]
		},
		{
			"channels":[
				{
					"sampler":0,
					"target":{
						"node":2,
						"path":"translation"
					}
				},
				{
					"sampler":1,
					"target":{
						"node":2,
						"path":"rotation"
					}
				},
				{
					"sampler":2,
					"target":{
						"node":2,
						"path":"scale"
					}
				}
			],
			"name":"pump_move",
			"samplers":[
				{
					"input":19,
					"interpolation":"LINEAR",
					"output":20
				},
				{
					"input":21,
					"interpolation":"STEP",
					"output":22
				},
				{
					"input":21,
					"interpolation":"STEP",
					"output":23
				}
			]
		}
	],
	"materials":[
		{
			"doubleSided":true,
			"name":"o2_mat",
			"pbrMetallicRoughness":{
				"baseColorTexture":{
					"index":0
				},
				"metallicFactor":0,
				"roughnessFactor":0.5
			}
		}
	],
	"meshes":[
		{
			"name":"Cube.001",
			"primitives":[
				{
					"attributes":{
						"POSITION":0,
						"NORMAL":1,
						"TEXCOORD_0":2
					},
					"indices":3,
					"material":0
				}
			]
		},
		{
			"name":"Circle",
			"primitives":[
				{
					"attributes":{
						"POSITION":4,
						"NORMAL":5,
						"TEXCOORD_0":6
					},
					"indices":7
				}
			]
		},
		{
			"name":"Circle.001",
			"primitives":[
				{
					"attributes":{
						"POSITION":8,
						"NORMAL":9,
						"TEXCOORD_0":10,
						"JOINTS_0":11,
						"WEIGHTS_0":12
					},
					"indices":13
				}
			]
		}
	],
	"textures":[
		{
			"sampler":0,
			"source":0
		}
	],
	"images":[
		{
			"bufferView":4,
			"mimeType":"image/png",
			"name":"o2_texture"
		}
	],
	"skins":[
		{
			"inverseBindMatrices":14,
			"joints":[
				2
			],
			"name":"Armature"
		}
	],
	"accessors":[
		{
			"bufferView":0,
			"componentType":5126,
			"count":1080,
			"max":[
				1,
				13.000001907348633,
				1
			],
			"min":[
				-1,
				-5,
				-1
			],
			"type":"VEC3"
		},
		{
			"bufferView":1,
			"componentType":5126,
			"count":1080,
			"type":"VEC3"
		},
		{
			"bufferView":2,
			"componentType":5126,
			"count":1080,
			"type":"VEC2"
		},
		{
			"bufferView":3,
			"componentType":5123,
			"count":2064,
			"type":"SCALAR"
		},
		{
			"bufferView":5,
			"componentType":5126,
			"count":552,
			"max":[
				0.6314836144447327,
				0,
				0.5811461210250854
			],
			"min":[
				-0.645630419254303,
				-0.30000001192092896,
				-0.6895570755004883
			],
			"type":"VEC3"
		},
		{
			"bufferView":6,
			"componentType":5126,
			"count":552,
			"type":"VEC3"
		},
		{
			"bufferView":7,
			"componentType":5126,
			"count":552,
			"type":"VEC2"
		},
		{
			"bufferView":8,
			"componentType":5123,
			"count":1092,
			"type":"SCALAR"
		},
		{
			"bufferView":9,
			"componentType":5126,
			"count":552,
			"max":[
				0.6764371395111084,
				2.6000001430511475,
				0.6188260912895203
			],
			"min":[
				-0.6248648166656494,
				2.3000001907348633,
				-0.6352254748344421
			],
			"type":"VEC3"
		},
		{
			"bufferView":10,
			"componentType":5126,
			"count":552,
			"type":"VEC3"
		},
		{
			"bufferView":11,
			"componentType":5126,
			"count":552,
			"type":"VEC2"
		},
		{
			"bufferView":12,
			"componentType":5121,
			"count":552,
			"type":"VEC4"
		},
		{
			"bufferView":13,
			"componentType":5126,
			"count":552,
			"type":"VEC4"
		},
		{
			"bufferView":14,
			"componentType":5123,
			"count":1092,
			"type":"SCALAR"
		},
		{
			"bufferView":15,
			"componentType":5126,
			"count":1,
			"type":"MAT4"
		},
		{
			"bufferView":16,
			"componentType":5126,
			"count":2,
			"max":[
				0.041666666666666664
			],
			"min":[
				0
			],
			"type":"SCALAR"
		},
		{
			"bufferView":17,
			"componentType":5126,
			"count":2,
			"type":"VEC3"
		},
		{
			"bufferView":18,
			"componentType":5126,
			"count":2,
			"type":"VEC4"
		},
		{
			"bufferView":19,
			"componentType":5126,
			"count":2,
			"type":"VEC3"
		},
		{
			"bufferView":20,
			"componentType":5126,
			"count":20,
			"max":[
				0.8333333333333334
			],
			"min":[
				0.041666666666666664
			],
			"type":"SCALAR"
		},
		{
			"bufferView":21,
			"componentType":5126,
			"count":20,
			"type":"VEC3"
		},
		{
			"bufferView":22,
			"componentType":5126,
			"count":2,
			"max":[
				0.8333333333333334
			],
			"min":[
				0.041666666666666664
			],
			"type":"SCALAR"
		},
		{
			"bufferView":23,
			"componentType":5126,
			"count":2,
			"type":"VEC4"
		},
		{
			"bufferView":24,
			"componentType":5126,
			"count":2,
			"type":"VEC3"
		}
	],
	"bufferViews":[
		{
			"buffer":0,
			"byteLength":12960,
			"byteOffset":0,
			"target":34962
		},
		{
			"buffer":0,
			"byteLength":12960,
			"byteOffset":12960,
			"target":34962
		},
		{
			"buffer":0,
			"byteLength":8640,
			"byteOffset":25920,
			"target":34962
		},
		{
			"buffer":0,
			"byteLength":4128,
			"byteOffset":34560,
			"target":34963
		},
		{
			"buffer":0,
			"byteLength":34024,
			"byteOffset":38688
		},
		{
			"buffer":0,
			"byteLength":6624,
			"byteOffset":72712,
			"target":34962
		},
		{
			"buffer":0,
			"byteLength":6624,
			"byteOffset":79336,
			"target":34962
		},
		{
			"buffer":0,
			"byteLength":4416,
			"byteOffset":85960,
			"target":34962
		},
		{
			"buffer":0,
			"byteLength":2184,
			"byteOffset":90376,
			"target":34963
		},
		{
			"buffer":0,
			"byteLength":6624,
			"byteOffset":92560,
			"target":34962
		},
		{
			"buffer":0,
			"byteLength":6624,
			"byteOffset":99184,
			"target":34962
		},
		{
			"buffer":0,
			"byteLength":4416,
			"byteOffset":105808,
			"target":34962
		},
		{
			"buffer":0,
			"byteLength":2208,
			"byteOffset":110224,
			"target":34962
		},
		{
			"buffer":0,
			"byteLength":8832,
			"byteOffset":112432,
			"target":34962
		},
		{
			"buffer":0,
			"byteLength":2184,
			"byteOffset":121264,
			"target":34963
		},
		{
			"buffer":0,
			"byteLength":64,
			"byteOffset":123448
		},
		{
			"buffer":0,
			"byteLength":8,
			"byteOffset":123512
		},
		{
			"buffer":0,
			"byteLength":24,
			"byteOffset":123520
		},
		{
			"buffer":0,
			"byteLength":32,
			"byteOffset":123544
		},
		{
			"buffer":0,
			"byteLength":24,
			"byteOffset":123576
		},
		{
			"buffer":0,
			"byteLength":80,
			"byteOffset":123600
		},
		{
			"buffer":0,
			"byteLength":240,
			"byteOffset":123680
		},
		{
			"buffer":0,
			"byteLength":8,
			"byteOffset":123920
		},
		{
			"buffer":0,
			"byteLength":32,
			"byteOffset":123928
		},
		{
			"buffer":0,
			"byteLength":24,
			"byteOffset":123960
		}
	],
	"samplers":[
		{
			"magFilter":9729,
			"minFilter":9987
		}
	],
	"buffers":[
		{
			"byteLength":123984,
			"uri":"data:application/octet-stream;base64,"
		}
	]
}
