{
	"asset":{
		"generator":"Khronos glTF Blender I/O v3.6.27",
		"version":"2.0"
	},
	"scene":0,
	"scenes":[
		{
			"name":"Scene",
			"nodes":[
				0,
				3
			]
		}
	],
	"nodes":[
		{
			"mesh":0,
			"name":"Cube"
		},
		{
			"name":"Bone",
			"rotation":[
				-4.2585430293229365e-08,
				5.242062073307352e-08,
				-0.7071066498756409,
				0.70710688829422
			],
			"translation":[
				-1.0000001192092896,
				0.30000001192092896,
				0
			]
		},
		{
			"mesh":1,
			"name":"Cube.001",
			"skin":0
		},
		{
			"children":[
				2,
				1
			],
			"name":"Armature"
		}
	],
	"animations":[
		{
			"channels":[
				{
					"sampler":0,
					"target":{
						"node":1,
						"path":"translation"
					}
				},
				{
					"sampler":1,
					"target":{
						"node":1,
						"path":"rotation"
					}
				},
				{
					"sampler":2,
					"target":{
						"node":1,
						"path":"scale"
					}
				}
			],
			"name":"storage_animation",
			"samplers":[
				{
					"input":11,
					"interpolation":"STEP",
					"output":12
				},
				{
					"input":13,
					"interpolation":"LINEAR",
					"output":14
				},
				{
					"input":11,
					"interpolation":"STEP",
					"output":15
				}
			]
		}
	],
	"materials":[
		{
			"doubleSided":true,
			"name":"storage_mat",
			"pbrMetallicRoughness":{
				"baseColorTexture":{
					"index":0
				},
				"metallicFactor":0,
				"roughnessFactor":0.5
			}
		}
	],
	"meshes":[
		{
			"name":"Cube",
			"primitives":[
				{
					"attributes":{
						"POSITION":0,
						"NORMAL":1,
						"TEXCOORD_0":2
					},
					"indices":3,
					"material":0
				}
			]
		},
		{
			"name":"Cube.001",
			"primitives":[
				{
					"attributes":{
						"POSITION":4,
						"NORMAL":5,
						"TEXCOORD_0":6,
						"JOINTS_0":7,
						"WEIGHTS_0":8
					},
					"indices":9,
					"material":0
				}
			]
		}
	],
	"textures":[
		{
			"sampler":0,
			"source":0
		}
	],
	"images":[
		{
			"bufferView":4,
			"mimeType":"image/png",
			"name":"storage_texture"
		}
	],
	"skins":[
		{
			"inverseBindMatrices":10,
			"joints":[
				1
			],
			"name":"Armature"
		}
	],
	"accessors":[
		{
			"bufferView":0,
			"componentType":5126,
			"count":2373,
			"max":[
				0.6000000238418579,
				0.18000000715255737,
				0.6000000238418579
			],
			"min":[
				-0.6000000238418579,
				-0.6000000238418579,
				-0.6000000238418579
			],
			"type":"VEC3"
		},
		{
			"bufferView":1,
			"componentType":5126,
			"count":2373,
			"type":"VEC3"
		},
		{
			"bufferView":2,
			"componentType":5126,
			"count":2373,
			"type":"VEC2"
		},
		{
			"bufferView":3,
			"componentType":5123,
			"count":9690,
			"type":"SCALAR"
		},
		{
			"bufferView":5,
			"componentType":5126,
			"count":1757,
			"max":[
				0.6000000238418579,
				0.6000000238418579,
				0.6000000238418579
			],
			"min":[
				-0.6000000238418579,
				0.18000005185604095,
				-0.6000000238418579
			],
			"type":"VEC3"
		},
		{
			"bufferView":6,
			"componentType":5126,
			"count":1757,
			"type":"VEC3"
		},
		{
			"bufferView":7,
			"componentType":5126,
			"count":1757,
			"type":"VEC2"
		},
		{
			"bufferView":8,
			"componentType":5121,
			"count":1757,
			"type":"VEC4"
		},
		{
			"bufferView":9,
			"componentType":5126,
			"count":1757,
			"type":"VEC4"
		},
		{
			"bufferView":10,
			"componentType":5123,
			"count":6666,
			"type":"SCALAR"
		},
		{
			"bufferView":11,
			"componentType":5126,
			"count":1,
			"type":"MAT4"
		},
		{
			"bufferView":12,
			"componentType":5126,
			"count":2,
			"max":[
				0.9583333333333334
			],
			"min":[
				0.041666666666666664
			],
			"type":"SCALAR"
		},
		{
			"bufferView":13,
			"componentType":5126,
			"count":2,
			"type":"VEC3"
		},
		{
			"bufferView":14,
			"componentType":5126,
			"count":23,
			"max":[
				0.9583333333333334
			],
			"min":[
				0.041666666666666664
			],
			"type":"SCALAR"
		},
		{
			"bufferView":15,
			"componentType":5126,
			"count":23,
			"type":"VEC4"
		},
		{
			"bufferView":16,
			"componentType":5126,
			"count":2,
			"type":"VEC3"
		}
	],
	"bufferViews":[
		{
			"buffer":0,
			"byteLength":28476,
			"byteOffset":0,
			"target":34962
		},
		{
			"buffer":0,
			"byteLength":28476,
			"byteOffset":28476,
			"target":34962
		},
		{
			"buffer":0,
			"byteLength":18984,
			"byteOffset":56952,
			"target":34962
		},
		{
			"buffer":0,
			"byteLength":19380,
			"byteOffset":75936,
			"target":34963
		},
		{
			"buffer":0,
			"byteLength":6743,
			"byteOffset":95316
		},
		{
			"buffer":0,
			"byteLength":21084,
			"byteOffset":102060,
			"target":34962
		},
		{
			"buffer":0,
			"byteLength":21084,
			"byteOffset":123144,
			"target":34962
		},
		{
			"buffer":0,
			"byteLength":14056,
			"byteOffset":144228,
			"target":34962
		},
		{
			"buffer":0,
			"byteLength":7028,
			"byteOffset":158284,
			"target":34962
		},
		{
			"buffer":0,
			"byteLength":28112,
			"byteOffset":165312,
			"target":34962
		},
		{
			"buffer":0,
			"byteLength":13332,
			"byteOffset":193424,
			"target":34963
		},
		{
			"buffer":0,
			"byteLength":64,
			"byteOffset":206756
		},
		{
			"buffer":0,
			"byteLength":8,
			"byteOffset":206820
		},
		{
			"buffer":0,
			"byteLength":24,
			"byteOffset":206828
		},
		{
			"buffer":0,
			"byteLength":92,
			"byteOffset":206852
		},
		{
			"buffer":0,
			"byteLength":368,
			"byteOffset":206944
		},
		{
			"buffer":0,
			"byteLength":24,
			"byteOffset":207312
		}
	],
	"samplers":[
		{
			"magFilter":9729,
			"minFilter":9987
		}
	],
	"buffers":[
		{
			"byteLength":207336,
			"uri":"data:application/octet-stream;base64,"
		}
	]
}
