{
	"asset":{
		"generator":"Khronos glTF Blender I/O v3.6.27",
		"version":"2.0"
	},
	"scene":0,
	"scenes":[
		{
			"name":"Scene",
			"nodes":[
				0,
				3
			]
		}
	],
	"nodes":[
		{
			"mesh":0,
			"name":"Cube"
		},
		{
			"name":"Bone",
			"rotation":[
				-4.2585430293229365e-08,
				5.242062073307352e-08,
				-0.7071066498756409,
				0.70710688829422
			],
			"translation":[
				-1.0000001192092896,
				0.30000001192092896,
				0
			]
		},
		{
			"mesh":1,
			"name":"Cube.001",
			"skin":0
		},
		{
			"children":[
				2,
				1
			],
			"name":"Armature"
		}
	],
	"animations":[
		{
			"channels":[
				{
					"sampler":0,
					"target":{
						"node":1,
						"path":"translation"
					}
				},
				{
					"sampler":1,
					"target":{
						"node":1,
						"path":"rotation"
					}
				},
				{
					"sampler":2,
					"target":{
						"node":1,
						"path":"scale"
					}
				}
			],
			"name":"storage_animation",
			"samplers":[
				{
					"input":11,
					"interpolation":"STEP",
					"output":12
				},
				{
					"input":13,
					"interpolation":"LINEAR",
					"output":14
				},
				{
					"input":11,
					"interpolation":"STEP",
					"output":15
				}
			]
		}
	],
	"materials":[
		{
			"alphaMode":"BLEND",
			"doubleSided":true,
			"name":"storage_mat",
			"pbrMetallicRoughness":{
				"baseColorFactor":[
					1,
					1,
					1,
					0.30000001192092896
				],
				"baseColorTexture":{
					"index":0
				},
				"metallicFactor":0,
				"roughnessFactor":0.5
			}
		}
	],
	"meshes":[
		{
			"name":"Cube",
			"primitives":[
				{
					"attributes":{
						"POSITION":0,
						"NORMAL":1,
						"TEXCOORD_0":2
					},
					"indices":3,
					"material":0
				}
			]
		},
		{
			"name":"Cube.001",
			"primitives":[
				{
					"attributes":{
						"POSITION":4,
						"NORMAL":5,
						"TEXCOORD_0":6,
						"JOINTS_0":7,
						"WEIGHTS_0":8
					},
					"indices":9,
					"material":0
				}
			]
		}
	],
	"textures":[
		{
			"sampler":0,
			"source":0
		}
	],
	"images":[
		{
			"bufferView":4,
			"mimeType":"image/png",
			"name":"storage_texture"
		}
	],
	"skins":[
		{
			"inverseBindMatrices":10,
			"joints":[
				1
			],
			"name":"Armature"
		}
	],
	"accessors":[
		{
			"bufferView":0,
			"componentType":5126,
			"count":2289,
			"max":[
				0.6000000238418579,
				0.18000000715255737,
				0.6000000238418579
			],
			"min":[
				-0.6000000238418579,
				-0.6000000238418579,
				-0.6000000238418579
			],
			"type":"VEC3"
		},
		{
			"bufferView":1,
			"componentType":5126,
			"count":2289,
			"type":"VEC3"
		},
		{
			"bufferView":2,
			"componentType":5126,
			"count":2289,
			"type":"VEC2"
		},
		{
			"bufferView":3,
			"componentType":5123,
			"count":9444,
			"type":"SCALAR"
		},
		{
			"bufferView":5,
			"componentType":5126,
			"count":1673,
			"max":[
				0.6000000238418579,
				0.6000000238418579,
				0.6000000238418579
			],
			"min":[
				-0.6000000238418579,
				0.18000005185604095,
				-0.6000000238418579
			],
			"type":"VEC3"
		},
		{
			"bufferView":6,
			"componentType":5126,
			"count":1673,
			"type":"VEC3"
		},
		{
			"bufferView":7,
			"componentType":5126,
			"count":1673,
			"type":"VEC2"
		},
		{
			"bufferView":8,
			"componentType":5121,
			"count":1673,
			"type":"VEC4"
		},
		{
			"bufferView":9,
			"componentType":5126,
			"count":1673,
			"type":"VEC4"
		},
		{
			"bufferView":10,
			"componentType":5123,
			"count":6420,
			"type":"SCALAR"
		},
		{
			"bufferView":11,
			"componentType":5126,
			"count":1,
			"type":"MAT4"
		},
		{
			"bufferView":12,
			"componentType":5126,
			"count":2,
			"max":[
				0.9583333333333334
			],
			"min":[
				0.041666666666666664
			],
			"type":"SCALAR"
		},
		{
			"bufferView":13,
			"componentType":5126,
			"count":2,
			"type":"VEC3"
		},
		{
			"bufferView":14,
			"componentType":5126,
			"count":23,
			"max":[
				0.9583333333333334
			],
			"min":[
				0.041666666666666664
			],
			"type":"SCALAR"
		},
		{
			"bufferView":15,
			"componentType":5126,
			"count":23,
			"type":"VEC4"
		},
		{
			"bufferView":16,
			"componentType":5126,
			"count":2,
			"type":"VEC3"
		}
	],
	"bufferViews":[
		{
			"buffer":0,
			"byteLength":27468,
			"byteOffset":0,
			"target":34962
		},
		{
			"buffer":0,
			"byteLength":27468,
			"byteOffset":27468,
			"target":34962
		},
		{
			"buffer":0,
			"byteLength":18312,
			"byteOffset":54936,
			"target":34962
		},
		{
			"buffer":0,
			"byteLength":18888,
			"byteOffset":73248,
			"target":34963
		},
		{
			"buffer":0,
			"byteLength":6743,
			"byteOffset":92136
		},
		{
			"buffer":0,
			"byteLength":20076,
			"byteOffset":98880,
			"target":34962
		},
		{
			"buffer":0,
			"byteLength":20076,
			"byteOffset":118956,
			"target":34962
		},
		{
			"buffer":0,
			"byteLength":13384,
			"byteOffset":139032,
			"target":34962
		},
		{
			"buffer":0,
			"byteLength":6692,
			"byteOffset":152416,
			"target":34962
		},
		{
			"buffer":0,
			"byteLength":26768,
			"byteOffset":159108,
			"target":34962
		},
		{
			"buffer":0,
			"byteLength":12840,
			"byteOffset":185876,
			"target":34963
		},
		{
			"buffer":0,
			"byteLength":64,
			"byteOffset":198716
		},
		{
			"buffer":0,
			"byteLength":8,
			"byteOffset":198780
		},
		{
			"buffer":0,
			"byteLength":24,
			"byteOffset":198788
		},
		{
			"buffer":0,
			"byteLength":92,
			"byteOffset":198812
		},
		{
			"buffer":0,
			"byteLength":368,
			"byteOffset":198904
		},
		{
			"buffer":0,
			"byteLength":24,
			"byteOffset":199272
		}
	],
	"samplers":[
		{
			"magFilter":9729,
			"minFilter":9987
		}
	],
	"buffers":[
		{
			"byteLength":199296,
			"uri":"data:application/octet-stream;base64,"
		}
	]
}
