{
	"asset":{
		"generator":"Khronos glTF Blender I/O v3.6.27",
		"version":"2.0"
	},
	"scene":0,
	"scenes":[
		{
			"name":"Scene",
			"nodes":[
				0,
				1
			]
		}
	],
	"nodes":[
		{
			"mesh":0,
			"name":"module"
		},
		{
			"mesh":1,
			"name":"dirt",
			"rotation":[
				0,
				1,
				0,
				0
			],
			"scale":[
				-0.8712000846862793,
				-0.1560000479221344,
				-0.8712000846862793
			],
			"translation":[
				0,
				0.8799999952316284,
				0
			]
		}
	],
	"materials":[
		{
			"doubleSided":true,
			"name":"plant_module_mat",
			"pbrMetallicRoughness":{
				"baseColorTexture":{
					"index":0
				},
				"metallicFactor":0,
				"roughnessFactor":0.5
			}
		},
		{
			"doubleSided":true,
			"name":"module_dirt_mat",
			"pbrMetallicRoughness":{
				"baseColorTexture":{
					"index":1
				},
				"metallicFactor":0,
				"roughnessFactor":0.5
			}
		}
	],
	"meshes":[
		{
			"name":"Cube",
			"primitives":[
				{
					"attributes":{
						"POSITION":0,
						"NORMAL":1,
						"TEXCOORD_0":2
					},
					"indices":3,
					"material":0
				}
			]
		},
		{
			"name":"Cube.001",
			"primitives":[
				{
					"attributes":{
						"POSITION":4,
						"NORMAL":5,
						"TEXCOORD_0":6
					},
					"indices":7,
					"material":1
				}
			]
		}
	],
	"textures":[
		{
			"sampler":0,
			"source":0
		},
		{
			"sampler":0,
			"source":1
		}
	],
	"images":[
		{
			"bufferView":4,
			"mimeType":"image/png",
			"name":"plant _module_texture"
		},
		{
			"bufferView":9,
			"mimeType":"image/png",
			"name":"module_dirt"
		}
	],
	"accessors":[
		{
			"bufferView":0,
			"componentType":5126,
			"count":768,
			"max":[
				1,
				1,
				1
			],
			"min":[
				-1,
				-1,
				-1
			],
			"type":"VEC3"
		},
		{
			"bufferView":1,
			"componentType":5126,
			"count":768,
			"type":"VEC3"
		},
		{
			"bufferView":2,
			"componentType":5126,
			"count":768,
			"type":"VEC2"
		},
		{
			"bufferView":3,
			"componentType":5123,
			"count":1140,
			"type":"SCALAR"
		},
		{
			"bufferView":5,
			"componentType":5126,
			"count":889,
			"max":[
				1,
				1,
				1
			],
			"min":[
				-1.0055103302001953,
				-1.7399632930755615,
				-1
			],
			"type":"VEC3"
		},
		{
			"bufferView":6,
			"componentType":5126,
			"count":889,
			"type":"VEC3"
		},
		{
			"bufferView":7,
			"componentType":5126,
			"count":889,
			"type":"VEC2"
		},
		{
			"bufferView":8,
			"componentType":5123,
			"count":1920,
			"type":"SCALAR"
		}
	],
	"bufferViews":[
		{
			"buffer":0,
			"byteLength":9216,
			"byteOffset":0,
			"target":34962
		},
		{
			"buffer":0,
			"byteLength":9216,
			"byteOffset":9216,
			"target":34962
		},
		{
			"buffer":0,
			"byteLength":6144,
			"byteOffset":18432,
			"target":34962
		},
		{
			"buffer":0,
			"byteLength":2280,
			"byteOffset":24576,
			"target":34963
		},
		{
			"buffer":0,
			"byteLength":6507,
			"byteOffset":26856
		},
		{
			"buffer":0,
			"byteLength":10668,
			"byteOffset":33364,
			"target":34962
		},
		{
			"buffer":0,
			"byteLength":10668,
			"byteOffset":44032,
			"target":34962
		},
		{
			"buffer":0,
			"byteLength":7112,
			"byteOffset":54700,
			"target":34962
		},
		{
			"buffer":0,
			"byteLength":3840,
			"byteOffset":61812,
			"target":34963
		},
		{
			"buffer":0,
			"byteLength":4582,
			"byteOffset":65652
		}
	],
	"samplers":[
		{
			"magFilter":9729,
			"minFilter":9987
		}
	],
	"buffers":[
		{
			"byteLength":70236,
			"uri":"data:application/octet-stream;base64,"
		}
	]
}
