{
	"asset":{
		"generator":"Khronos glTF Blender I/O v3.6.27",
		"version":"2.0"
	},
	"scene":0,
	"scenes":[
		{
			"name":"Scene",
			"nodes":[
				0,
				3
			]
		}
	],
	"nodes":[
		{
			"mesh":0,
			"name":"Cube",
			"scale":[
				1,
				0.30000001192092896,
				1
			],
			"translation":[
				0,
				-0.699999988079071,
				0
			]
		},
		{
			"name":"Bone"
		},
		{
			"mesh":1,
			"name":"Cylinder",
			"skin":0
		},
		{
			"children":[
				2,
				1
			],
			"name":"Armature",
			"translation":[
				-0.010000000707805157,
				0.7400000095367432,
				0.800000011920929
			]
		}
	],
	"animations":[
		{
			"channels":[
				{
					"sampler":0,
					"target":{
						"node":1,
						"path":"translation"
					}
				},
				{
					"sampler":1,
					"target":{
						"node":1,
						"path":"rotation"
					}
				},
				{
					"sampler":2,
					"target":{
						"node":1,
						"path":"scale"
					}
				}
			],
			"name":"pump_action",
			"samplers":[
				{
					"input":11,
					"interpolation":"LINEAR",
					"output":12
				},
				{
					"input":13,
					"interpolation":"STEP",
					"output":14
				},
				{
					"input":13,
					"interpolation":"STEP",
					"output":15
				}
			]
		}
	],
	"materials":[
		{
			"doubleSided":true,
			"name":"o2_storage",
			"pbrMetallicRoughness":{
				"baseColorTexture":{
					"index":0
				},
				"metallicFactor":0,
				"roughnessFactor":0.5
			}
		},
		{
			"doubleSided":true,
			"name":"o2_pump_mat",
			"pbrMetallicRoughness":{
				"baseColorTexture":{
					"index":1
				},
				"metallicFactor":0,
				"roughnessFactor":0.5
			}
		}
	],
	"meshes":[
		{
			"name":"Cube.001",
			"primitives":[
				{
					"attributes":{
						"POSITION":0,
						"NORMAL":1,
						"TEXCOORD_0":2
					},
					"indices":3,
					"material":0
				}
			]
		},
		{
			"name":"Cylinder.001",
			"primitives":[
				{
					"attributes":{
						"POSITION":4,
						"NORMAL":5,
						"TEXCOORD_0":6,
						"JOINTS_0":7,
						"WEIGHTS_0":8
					},
					"indices":9,
					"material":1
				}
			]
		}
	],
	"textures":[
		{
			"sampler":0,
			"source":0
		},
		{
			"sampler":0,
			"source":1
		}
	],
	"images":[
		{
			"bufferView":4,
			"mimeType":"image/png",
			"name":"o2_storage_texture"
		},
		{
			"bufferView":11,
			"mimeType":"image/png",
			"name":"o2_pump_texture"
		}
	],
	"skins":[
		{
			"inverseBindMatrices":10,
			"joints":[
				1
			],
			"name":"Armature"
		}
	],
	"accessors":[
		{
			"bufferView":0,
			"componentType":5126,
			"count":2184,
			"max":[
				1,
				7.933332920074463,
				1
			],
			"min":[
				-1,
				-1,
				-1
			],
			"type":"VEC3"
		},
		{
			"bufferView":1,
			"componentType":5126,
			"count":2184,
			"type":"VEC3"
		},
		{
			"bufferView":2,
			"componentType":5126,
			"count":2184,
			"type":"VEC2"
		},
		{
			"bufferView":3,
			"componentType":5123,
			"count":3192,
			"type":"SCALAR"
		},
		{
			"bufferView":5,
			"componentType":5126,
			"count":384,
			"max":[
				0.1899999976158142,
				1.863021731376648,
				1.0000001192092896
			],
			"min":[
				-0.20999999344348907,
				0.6418582201004028,
				0.6000000834465027
			],
			"type":"VEC3"
		},
		{
			"bufferView":6,
			"componentType":5126,
			"count":384,
			"type":"VEC3"
		},
		{
			"bufferView":7,
			"componentType":5126,
			"count":384,
			"type":"VEC2"
		},
		{
			"bufferView":8,
			"componentType":5121,
			"count":384,
			"type":"VEC4"
		},
		{
			"bufferView":9,
			"componentType":5126,
			"count":384,
			"type":"VEC4"
		},
		{
			"bufferView":10,
			"componentType":5123,
			"count":744,
			"type":"SCALAR"
		},
		{
			"bufferView":12,
			"componentType":5126,
			"count":1,
			"type":"MAT4"
		},
		{
			"bufferView":13,
			"componentType":5126,
			"count":40,
			"max":[
				1.6666666666666667
			],
			"min":[
				0.041666666666666664
			],
			"type":"SCALAR"
		},
		{
			"bufferView":14,
			"componentType":5126,
			"count":40,
			"type":"VEC3"
		},
		{
			"bufferView":15,
			"componentType":5126,
			"count":2,
			"max":[
				1.6666666666666667
			],
			"min":[
				0.041666666666666664
			],
			"type":"SCALAR"
		},
		{
			"bufferView":16,
			"componentType":5126,
			"count":2,
			"type":"VEC4"
		},
		{
			"bufferView":17,
			"componentType":5126,
			"count":2,
			"type":"VEC3"
		}
	],
	"bufferViews":[
		{
			"buffer":0,
			"byteLength":26208,
			"byteOffset":0,
			"target":34962
		},
		{
			"buffer":0,
			"byteLength":26208,
			"byteOffset":26208,
			"target":34962
		},
		{
			"buffer":0,
			"byteLength":17472,
			"byteOffset":52416,
			"target":34962
		},
		{
			"buffer":0,
			"byteLength":6384,
			"byteOffset":69888,
			"target":34963
		},
		{
			"buffer":0,
			"byteLength":26027,
			"byteOffset":76272
		},
		{
			"buffer":0,
			"byteLength":4608,
			"byteOffset":102300,
			"target":34962
		},
		{
			"buffer":0,
			"byteLength":4608,
			"byteOffset":106908,
			"target":34962
		},
		{
			"buffer":0,
			"byteLength":3072,
			"byteOffset":111516,
			"target":34962
		},
		{
			"buffer":0,
			"byteLength":1536,
			"byteOffset":114588,
			"target":34962
		},
		{
			"buffer":0,
			"byteLength":6144,
			"byteOffset":116124,
			"target":34962
		},
		{
			"buffer":0,
			"byteLength":1488,
			"byteOffset":122268,
			"target":34963
		},
		{
			"buffer":0,
			"byteLength":26307,
			"byteOffset":123756
		},
		{
			"buffer":0,
			"byteLength":64,
			"byteOffset":150064
		},
		{
			"buffer":0,
			"byteLength":160,
			"byteOffset":150128
		},
		{
			"buffer":0,
			"byteLength":480,
			"byteOffset":150288
		},
		{
			"buffer":0,
			"byteLength":8,
			"byteOffset":150768
		},
		{
			"buffer":0,
			"byteLength":32,
			"byteOffset":150776
		},
		{
			"buffer":0,
			"byteLength":24,
			"byteOffset":150808
		}
	],
	"samplers":[
		{
			"magFilter":9729,
			"minFilter":9987
		}
	],
	"buffers":[
		{
			"byteLength":150832,
			"uri":"data:application/octet-stream;base64,"
		}
	]
}
