{
	"asset":{
		"generator":"Khronos glTF Blender I/O v3.6.27",
		"version":"2.0"
	},
	"scene":0,
	"scenes":[
		{
			"name":"Scene",
			"nodes":[
				0
			]
		}
	],
	"nodes":[
		{
			"mesh":0,
			"name":"Torus",
			"scale":[
				1,
				1.6584010124206543,
				1
			]
		}
	],
	"materials":[
		{
			"doubleSided":true,
			"name":"apple_material",
			"pbrMetallicRoughness":{
				"baseColorTexture":{
					"index":0
				},
				"metallicFactor":0,
				"roughnessFactor":0.5
			}
		}
	],
	"meshes":[
		{
			"name":"Torus",
			"primitives":[
				{
					"attributes":{
						"POSITION":0,
						"NORMAL":1,
						"TEXCOORD_0":2
					},
					"indices":3,
					"material":0
				}
			]
		}
	],
	"textures":[
		{
			"sampler":0,
			"source":0
		}
	],
	"images":[
		{
			"bufferView":4,
			"mimeType":"image/png",
			"name":"apple_texture"
		}
	],
	"accessors":[
		{
			"bufferView":0,
			"componentType":5126,
			"count":3424,
			"max":[
				0.19999998807907104,
				0.14336718618869781,
				0.19999998807907104
			],
			"min":[
				-0.19999998807907104,
				-0.09999998658895493,
				-0.19999998807907104
			],
			"type":"VEC3"
		},
		{
			"bufferView":1,
			"componentType":5126,
			"count":3424,
			"type":"VEC3"
		},
		{
			"bufferView":2,
			"componentType":5126,
			"count":3424,
			"type":"VEC2"
		},
		{
			"bufferView":3,
			"componentType":5123,
			"count":5082,
			"type":"SCALAR"
		}
	],
	"bufferViews":[
		{
			"buffer":0,
			"byteLength":41088,
			"byteOffset":0,
			"target":34962
		},
		{
			"buffer":0,
			"byteLength":41088,
			"byteOffset":41088,
			"target":34962
		},
		{
			"buffer":0,
			"byteLength":27392,
			"byteOffset":82176,
			"target":34962
		},
		{
			"buffer":0,
			"byteLength":10164,
			"byteOffset":109568,
			"target":34963
		},
		{
			"buffer":0,
			"byteLength":14267,
			"byteOffset":119732
		}
	],
	"samplers":[
		{
			"magFilter":9729,
			"minFilter":9987
		}
	],
	"buffers":[
		{
			"byteLength":134000,
			"uri":"data:application/octet-stream;base64,"
		}
	]
}
