{
	"asset":{
		"generator":"Khronos glTF Blender I/O v3.6.27",
		"version":"2.0"
	},
	"scene":0,
	"scenes":[
		{
			"name":"Scene",
			"nodes":[
				0,
				7
			]
		}
	],
	"nodes":[
		{
			"mesh":0,
			"name":"Cube",
			"translation":[
				0,
				0.9000000953674316,
				0
			]
		},
		{
			"name":"Bone"
		},
		{
			"name":"Bone.002",
			"rotation":[
				-0.7071067690849304,
				7.850462820808426e-17,
				7.850462820808426e-17,
				0.7071067690849304
			]
		},
		{
			"mesh":1,
			"name":"Circle",
			"skin":0
		},
		{
			"mesh":2,
			"name":"Circle.001",
			"skin":0
		},
		{
			"mesh":3,
			"name":"Cone",
			"skin":0
		},
		{
			"mesh":4,
			"name":"Cylinder",
			"skin":0
		},
		{
			"children":[
				3,
				4,
				5,
				6,
				1,
				2
			],
			"name":"Armature",
			"rotation":[
				-0.7071068286895752,
				0,
				0,
				0.7071068286895752
			],
			"translation":[
				0,
				0.9000000357627869,
				0
			]
		}
	],
	"animations":[
		{
			"channels":[
				{
					"sampler":0,
					"target":{
						"node":1,
						"path":"translation"
					}
				},
				{
					"sampler":1,
					"target":{
						"node":1,
						"path":"rotation"
					}
				},
				{
					"sampler":2,
					"target":{
						"node":1,
						"path":"scale"
					}
				},
				{
					"sampler":3,
					"target":{
						"node":2,
						"path":"translation"
					}
				},
				{
					"sampler":4,
					"target":{
						"node":2,
						"path":"rotation"
					}
				},
				{
					"sampler":5,
					"target":{
						"node":2,
						"path":"scale"
					}
				}
			],
			"name":"drill_rotate",
			"samplers":[
				{
					"input":29,
					"interpolation":"STEP",
					"output":30
				},
				{
					"input":31,
					"interpolation":"LINEAR",
					"output":32
				},
				{
					"input":29,
					"interpolation":"STEP",
					"output":33
				},
				{
					"input":29,
					"interpolation":"STEP",
					"output":34
				},
				{
					"input":29,
					"interpolation":"STEP",
					"output":35
				},
				{
					"input":29,
					"interpolation":"STEP",
					"output":36
				}
			]
		}
	],
	"materials":[
		{
			"doubleSided":true,
			"name":"Material",
			"pbrMetallicRoughness":{
				"baseColorFactor":[
					0.800000011920929,
					0.800000011920929,
					0.800000011920929,
					1
				],
				"metallicFactor":0,
				"roughnessFactor":0.5
			}
		}
	],
	"meshes":[
		{
			"name":"Cube",
			"primitives":[
				{
					"attributes":{
						"POSITION":0,
						"NORMAL":1,
						"TEXCOORD_0":2
					},
					"indices":3,
					"material":0
				}
			]
		},
		{
			"name":"Circle.001",
			"primitives":[
				{
					"attributes":{
						"POSITION":4,
						"NORMAL":5,
						"TEXCOORD_0":6,
						"JOINTS_0":7,
						"WEIGHTS_0":8
					},
					"indices":9
				}
			]
		},
		{
			"name":"Circle.003",
			"primitives":[
				{
					"attributes":{
						"POSITION":11,
						"NORMAL":12,
						"TEXCOORD_0":13,
						"JOINTS_0":14,
						"WEIGHTS_0":15
					},
					"indices":16
				}
			]
		},
		{
			"name":"Cone",
			"primitives":[
				{
					"attributes":{
						"POSITION":17,
						"NORMAL":18,
						"TEXCOORD_0":19,
						"JOINTS_0":20,
						"WEIGHTS_0":21
					},
					"indices":22
				}
			]
		},
		{
			"name":"Cylinder",
			"primitives":[
				{
					"attributes":{
						"POSITION":23,
						"NORMAL":24,
						"TEXCOORD_0":25,
						"JOINTS_0":26,
						"WEIGHTS_0":27
					},
					"indices":28
				}
			]
		}
	],
	"skins":[
		{
			"inverseBindMatrices":10,
			"joints":[
				1,
				2
			],
			"name":"Armature"
		}
	],
	"accessors":[
		{
			"bufferView":0,
			"componentType":5126,
			"count":51,
			"max":[
				1,
				0.09999990463256836,
				1
			],
			"min":[
				-1,
				-0.10000009834766388,
				-1
			],
			"type":"VEC3"
		},
		{
			"bufferView":1,
			"componentType":5126,
			"count":51,
			"type":"VEC3"
		},
		{
			"bufferView":2,
			"componentType":5126,
			"count":51,
			"type":"VEC2"
		},
		{
			"bufferView":3,
			"componentType":5123,
			"count":96,
			"type":"SCALAR"
		},
		{
			"bufferView":4,
			"componentType":5126,
			"count":197,
			"max":[
				0.7969232201576233,
				0.7996957898139954,
				0.8000001311302185
			],
			"min":[
				-0.8030769228935242,
				-0.40044644474983215,
				-0.8000001311302185
			],
			"type":"VEC3"
		},
		{
			"bufferView":5,
			"componentType":5126,
			"count":197,
			"type":"VEC3"
		},
		{
			"bufferView":6,
			"componentType":5126,
			"count":197,
			"type":"VEC2"
		},
		{
			"bufferView":7,
			"componentType":5121,
			"count":197,
			"type":"VEC4"
		},
		{
			"bufferView":8,
			"componentType":5126,
			"count":197,
			"type":"VEC4"
		},
		{
			"bufferView":9,
			"componentType":5123,
			"count":780,
			"type":"SCALAR"
		},
		{
			"bufferView":10,
			"componentType":5126,
			"count":2,
			"type":"MAT4"
		},
		{
			"bufferView":11,
			"componentType":5126,
			"count":540,
			"max":[
				0.8035382032394409,
				1,
				0.7985667586326599
			],
			"min":[
				-0.7964227199554443,
				0.796822190284729,
				-0.801404595375061
			],
			"type":"VEC3"
		},
		{
			"bufferView":12,
			"componentType":5126,
			"count":540,
			"type":"VEC3"
		},
		{
			"bufferView":13,
			"componentType":5126,
			"count":540,
			"type":"VEC2"
		},
		{
			"bufferView":14,
			"componentType":5121,
			"count":540,
			"type":"VEC4"
		},
		{
			"bufferView":15,
			"componentType":5126,
			"count":540,
			"type":"VEC4"
		},
		{
			"bufferView":16,
			"componentType":5123,
			"count":804,
			"type":"SCALAR"
		},
		{
			"bufferView":17,
			"componentType":5126,
			"count":128,
			"max":[
				0.6399998664855957,
				-0.2999999225139618,
				0.64000004529953
			],
			"min":[
				-0.6400002241134644,
				-1,
				-0.64000004529953
			],
			"type":"VEC3"
		},
		{
			"bufferView":18,
			"componentType":5126,
			"count":128,
			"type":"VEC3"
		},
		{
			"bufferView":19,
			"componentType":5126,
			"count":128,
			"type":"VEC2"
		},
		{
			"bufferView":20,
			"componentType":5121,
			"count":128,
			"type":"VEC4"
		},
		{
			"bufferView":21,
			"componentType":5126,
			"count":128,
			"type":"VEC4"
		},
		{
			"bufferView":22,
			"componentType":5123,
			"count":186,
			"type":"SCALAR"
		},
		{
			"bufferView":23,
			"componentType":5126,
			"count":192,
			"max":[
				0.64000004529953,
				0.800000011920929,
				0.64000004529953
			],
			"min":[
				-0.64000004529953,
				-0.30000007152557373,
				-0.64000004529953
			],
			"type":"VEC3"
		},
		{
			"bufferView":24,
			"componentType":5126,
			"count":192,
			"type":"VEC3"
		},
		{
			"bufferView":25,
			"componentType":5126,
			"count":192,
			"type":"VEC2"
		},
		{
			"bufferView":26,
			"componentType":5121,
			"count":192,
			"type":"VEC4"
		},
		{
			"bufferView":27,
			"componentType":5126,
			"count":192,
			"type":"VEC4"
		},
		{
			"bufferView":28,
			"componentType":5123,
			"count":372,
			"type":"SCALAR"
		},
		{
			"bufferView":29,
			"componentType":5126,
			"count":2,
			"max":[
				0.8333333333333334
			],
			"min":[
				0.041666666666666664
			],
			"type":"SCALAR"
		},
		{
			"bufferView":30,
			"componentType":5126,
			"count":2,
			"type":"VEC3"
		},
		{
			"bufferView":31,
			"componentType":5126,
			"count":20,
			"max":[
				0.8333333333333334
			],
			"min":[
				0.041666666666666664
			],
			"type":"SCALAR"
		},
		{
			"bufferView":32,
			"componentType":5126,
			"count":20,
			"type":"VEC4"
		},
		{
			"bufferView":33,
			"componentType":5126,
			"count":2,
			"type":"VEC3"
		},
		{
			"bufferView":34,
			"componentType":5126,
			"count":2,
			"type":"VEC3"
		},
		{
			"bufferView":35,
			"componentType":5126,
			"count":2,
			"type":"VEC4"
		},
		{
			"bufferView":36,
			"componentType":5126,
			"count":2,
			"type":"VEC3"
		}
	],
	"bufferViews":[
		{
			"buffer":0,
			"byteLength":612,
			"byteOffset":0,
			"target":34962
		},
		{
			"buffer":0,
			"byteLength":612,
			"byteOffset":612,
			"target":34962
		},
		{
			"buffer":0,
			"byteLength":408,
			"byteOffset":1224,
			"target":34962
		},
		{
			"buffer":0,
			"byteLength":192,
			"byteOffset":1632,
			"target":34963
		},
		{
			"buffer":0,
			"byteLength":2364,
			"byteOffset":1824,
			"target":34962
		},
		{
			"buffer":0,
			"byteLength":2364,
			"byteOffset":4188,
			"target":34962
		},
		{
			"buffer":0,
			"byteLength":1576,
			"byteOffset":6552,
			"target":34962
		},
		{
			"buffer":0,
			"byteLength":788,
			"byteOffset":8128,
			"target":34962
		},
		{
			"buffer":0,
			"byteLength":3152,
			"byteOffset":8916,
			"target":34962
		},
		{
			"buffer":0,
			"byteLength":1560,
			"byteOffset":12068,
			"target":34963
		},
		{
			"buffer":0,
			"byteLength":128,
			"byteOffset":13628
		},
		{
			"buffer":0,
			"byteLength":6480,
			"byteOffset":13756,
			"target":34962
		},
		{
			"buffer":0,
			"byteLength":6480,
			"byteOffset":20236,
			"target":34962
		},
		{
			"buffer":0,
			"byteLength":4320,
			"byteOffset":26716,
			"target":34962
		},
		{
			"buffer":0,
			"byteLength":2160,
			"byteOffset":31036,
			"target":34962
		},
		{
			"buffer":0,
			"byteLength":8640,
			"byteOffset":33196,
			"target":34962
		},
		{
			"buffer":0,
			"byteLength":1608,
			"byteOffset":41836,
			"target":34963
		},
		{
			"buffer":0,
			"byteLength":1536,
			"byteOffset":43444,
			"target":34962
		},
		{
			"buffer":0,
			"byteLength":1536,
			"byteOffset":44980,
			"target":34962
		},
		{
			"buffer":0,
			"byteLength":1024,
			"byteOffset":46516,
			"target":34962
		},
		{
			"buffer":0,
			"byteLength":512,
			"byteOffset":47540,
			"target":34962
		},
		{
			"buffer":0,
			"byteLength":2048,
			"byteOffset":48052,
			"target":34962
		},
		{
			"buffer":0,
			"byteLength":372,
			"byteOffset":50100,
			"target":34963
		},
		{
			"buffer":0,
			"byteLength":2304,
			"byteOffset":50472,
			"target":34962
		},
		{
			"buffer":0,
			"byteLength":2304,
			"byteOffset":52776,
			"target":34962
		},
		{
			"buffer":0,
			"byteLength":1536,
			"byteOffset":55080,
			"target":34962
		},
		{
			"buffer":0,
			"byteLength":768,
			"byteOffset":56616,
			"target":34962
		},
		{
			"buffer":0,
			"byteLength":3072,
			"byteOffset":57384,
			"target":34962
		},
		{
			"buffer":0,
			"byteLength":744,
			"byteOffset":60456,
			"target":34963
		},
		{
			"buffer":0,
			"byteLength":8,
			"byteOffset":61200
		},
		{
			"buffer":0,
			"byteLength":24,
			"byteOffset":61208
		},
		{
			"buffer":0,
			"byteLength":80,
			"byteOffset":61232
		},
		{
			"buffer":0,
			"byteLength":320,
			"byteOffset":61312
		},
		{
			"buffer":0,
			"byteLength":24,
			"byteOffset":61632
		},
		{
			"buffer":0,
			"byteLength":24,
			"byteOffset":61656
		},
		{
			"buffer":0,
			"byteLength":32,
			"byteOffset":61680
		},
		{
			"buffer":0,
			"byteLength":24,
			"byteOffset":61712
		}
	],
	"buffers":[
		{
			"byteLength":61736,
			"uri":"data:application/octet-stream;base64,"
		}
	]
}
