{
	"asset":{
		"generator":"Khronos glTF Blender I/O v3.6.27",
		"version":"2.0"
	},
	"scene":0,
	"scenes":[
		{
			"name":"Scene",
			"nodes":[
				0,
				1,
				8
			]
		}
	],
	"nodes":[
		{
			"mesh":0,
			"name":"Cube"
		},
		{
			"mesh":1,
			"name":"dirt",
			"rotation":[
				0,
				1,
				0,
				0
			],
			"scale":[
				-0.8712000846862793,
				-0.1560000479221344,
				-0.8712000846862793
			],
			"translation":[
				0,
				0.8799999952316284,
				0
			]
		},
		{
			"name":"Bone.002",
			"translation":[
				0,
				1.0346472263336182,
				0
			]
		},
		{
			"children":[
				2
			],
			"name":"Bone.001",
			"translation":[
				0,
				1.000000238418579,
				0
			]
		},
		{
			"children":[
				3
			],
			"name":"Bone"
		},
		{
			"mesh":2,
			"name":"plant_1",
			"skin":0
		},
		{
			"mesh":3,
			"name":"plant_2",
			"skin":0
		},
		{
			"mesh":4,
			"name":"plant_3",
			"skin":0
		},
		{
			"children":[
				5,
				6,
				7,
				4
			],
			"name":"Armature",
			"scale":[
				0.45000001788139343,
				0.46392637491226196,
				0.45000001788139343
			],
			"translation":[
				-0.00515139102935791,
				1.0760647058486938,
				0
			]
		}
	],
	"animations":[
		{
			"channels":[
				{
					"sampler":0,
					"target":{
						"node":4,
						"path":"translation"
					}
				},
				{
					"sampler":1,
					"target":{
						"node":4,
						"path":"rotation"
					}
				},
				{
					"sampler":2,
					"target":{
						"node":4,
						"path":"scale"
					}
				},
				{
					"sampler":3,
					"target":{
						"node":3,
						"path":"translation"
					}
				},
				{
					"sampler":4,
					"target":{
						"node":3,
						"path":"rotation"
					}
				},
				{
					"sampler":5,
					"target":{
						"node":3,
						"path":"scale"
					}
				},
				{
					"sampler":6,
					"target":{
						"node":2,
						"path":"translation"
					}
				},
				{
					"sampler":7,
					"target":{
						"node":2,
						"path":"rotation"
					}
				},
				{
					"sampler":8,
					"target":{
						"node":2,
						"path":"scale"
					}
				}
			],
			"name":"plant_grow_1",
			"samplers":[
				{
					"input":27,
					"interpolation":"LINEAR",
					"output":28
				},
				{
					"input":27,
					"interpolation":"STEP",
					"output":29
				},
				{
					"input":30,
					"interpolation":"LINEAR",
					"output":31
				},
				{
					"input":27,
					"interpolation":"LINEAR",
					"output":32
				},
				{
					"input":27,
					"interpolation":"STEP",
					"output":33
				},
				{
					"input":27,
					"interpolation":"STEP",
					"output":34
				},
				{
					"input":27,
					"interpolation":"LINEAR",
					"output":35
				},
				{
					"input":27,
					"interpolation":"STEP",
					"output":36
				},
				{
					"input":27,
					"interpolation":"STEP",
					"output":37
				}
			]
		},
		{
			"channels":[
				{
					"sampler":0,
					"target":{
						"node":4,
						"path":"translation"
					}
				},
				{
					"sampler":1,
					"target":{
						"node":4,
						"path":"rotation"
					}
				},
				{
					"sampler":2,
					"target":{
						"node":4,
						"path":"scale"
					}
				},
				{
					"sampler":3,
					"target":{
						"node":3,
						"path":"translation"
					}
				},
				{
					"sampler":4,
					"target":{
						"node":3,
						"path":"rotation"
					}
				},
				{
					"sampler":5,
					"target":{
						"node":3,
						"path":"scale"
					}
				},
				{
					"sampler":6,
					"target":{
						"node":2,
						"path":"translation"
					}
				},
				{
					"sampler":7,
					"target":{
						"node":2,
						"path":"rotation"
					}
				},
				{
					"sampler":8,
					"target":{
						"node":2,
						"path":"scale"
					}
				}
			],
			"name":"plant_grow_2",
			"samplers":[
				{
					"input":27,
					"interpolation":"STEP",
					"output":38
				},
				{
					"input":27,
					"interpolation":"STEP",
					"output":39
				},
				{
					"input":27,
					"interpolation":"STEP",
					"output":40
				},
				{
					"input":27,
					"interpolation":"STEP",
					"output":41
				},
				{
					"input":27,
					"interpolation":"STEP",
					"output":42
				},
				{
					"input":30,
					"interpolation":"LINEAR",
					"output":43
				},
				{
					"input":27,
					"interpolation":"STEP",
					"output":44
				},
				{
					"input":27,
					"interpolation":"STEP",
					"output":45
				},
				{
					"input":27,
					"interpolation":"STEP",
					"output":46
				}
			]
		},
		{
			"channels":[
				{
					"sampler":0,
					"target":{
						"node":4,
						"path":"translation"
					}
				},
				{
					"sampler":1,
					"target":{
						"node":4,
						"path":"rotation"
					}
				},
				{
					"sampler":2,
					"target":{
						"node":4,
						"path":"scale"
					}
				},
				{
					"sampler":3,
					"target":{
						"node":3,
						"path":"translation"
					}
				},
				{
					"sampler":4,
					"target":{
						"node":3,
						"path":"rotation"
					}
				},
				{
					"sampler":5,
					"target":{
						"node":3,
						"path":"scale"
					}
				},
				{
					"sampler":6,
					"target":{
						"node":2,
						"path":"translation"
					}
				},
				{
					"sampler":7,
					"target":{
						"node":2,
						"path":"rotation"
					}
				},
				{
					"sampler":8,
					"target":{
						"node":2,
						"path":"scale"
					}
				}
			],
			"name":"plant_grow_3",
			"samplers":[
				{
					"input":27,
					"interpolation":"STEP",
					"output":47
				},
				{
					"input":27,
					"interpolation":"STEP",
					"output":48
				},
				{
					"input":27,
					"interpolation":"STEP",
					"output":49
				},
				{
					"input":27,
					"interpolation":"STEP",
					"output":50
				},
				{
					"input":27,
					"interpolation":"STEP",
					"output":51
				},
				{
					"input":27,
					"interpolation":"STEP",
					"output":52
				},
				{
					"input":27,
					"interpolation":"STEP",
					"output":53
				},
				{
					"input":27,
					"interpolation":"STEP",
					"output":54
				},
				{
					"input":30,
					"interpolation":"LINEAR",
					"output":55
				}
			]
		}
	],
	"materials":[
		{
			"doubleSided":true,
			"name":"plant_module_mat",
			"pbrMetallicRoughness":{
				"baseColorTexture":{
					"index":0
				},
				"metallicFactor":0,
				"roughnessFactor":0.5
			}
		},
		{
			"doubleSided":true,
			"name":"module_dirt_mat",
			"pbrMetallicRoughness":{
				"baseColorTexture":{
					"index":1
				},
				"metallicFactor":0,
				"roughnessFactor":0.5
			}
		},
		{
			"doubleSided":true,
			"name":"plant_material",
			"pbrMetallicRoughness":{
				"baseColorTexture":{
					"index":2
				},
				"metallicFactor":0,
				"roughnessFactor":0.5
			}
		}
	],
	"meshes":[
		{
			"name":"Cube",
			"primitives":[
				{
					"attributes":{
						"POSITION":0,
						"NORMAL":1,
						"TEXCOORD_0":2
					},
					"indices":3,
					"material":0
				}
			]
		},
		{
			"name":"Cube.001",
			"primitives":[
				{
					"attributes":{
						"POSITION":4,
						"NORMAL":5,
						"TEXCOORD_0":6
					},
					"indices":7,
					"material":1
				}
			]
		},
		{
			"name":"Circle",
			"primitives":[
				{
					"attributes":{
						"POSITION":8,
						"NORMAL":9,
						"TEXCOORD_0":10,
						"JOINTS_0":11,
						"WEIGHTS_0":12
					},
					"indices":13,
					"material":2
				}
			]
		},
		{
			"name":"Circle.004",
			"primitives":[
				{
					"attributes":{
						"POSITION":15,
						"NORMAL":16,
						"TEXCOORD_0":17,
						"JOINTS_0":18,
						"WEIGHTS_0":19
					},
					"indices":20,
					"material":2
				}
			]
		},
		{
			"name":"Circle.005",
			"primitives":[
				{
					"attributes":{
						"POSITION":21,
						"NORMAL":22,
						"TEXCOORD_0":23,
						"JOINTS_0":24,
						"WEIGHTS_0":25
					},
					"indices":26,
					"material":2
				}
			]
		}
	],
	"textures":[
		{
			"sampler":0,
			"source":0
		},
		{
			"sampler":0,
			"source":1
		},
		{
			"sampler":0,
			"source":2
		}
	],
	"images":[
		{
			"bufferView":4,
			"mimeType":"image/png",
			"name":"plant _module_texture"
		},
		{
			"bufferView":9,
			"mimeType":"image/png",
			"name":"module_dirt"
		},
		{
			"bufferView":16,
			"mimeType":"image/png",
			"name":"plant_texture"
		}
	],
	"skins":[
		{
			"inverseBindMatrices":14,
			"joints":[
				4,
				3,
				2
			],
			"name":"Armature"
		}
	],
	"accessors":[
		{
			"bufferView":0,
			"componentType":5126,
			"count":768,
			"max":[
				1,
				1,
				1
			],
			"min":[
				-1,
				-1,
				-1
			],
			"type":"VEC3"
		},
		{
			"bufferView":1,
			"componentType":5126,
			"count":768,
			"type":"VEC3"
		},
		{
			"bufferView":2,
			"componentType":5126,
			"count":768,
			"type":"VEC2"
		},
		{
			"bufferView":3,
			"componentType":5123,
			"count":1140,
			"type":"SCALAR"
		},
		{
			"bufferView":5,
			"componentType":5126,
			"count":889,
			"max":[
				1,
				1,
				1
			],
			"min":[
				-1.0055103302001953,
				-1.7399632930755615,
				-1
			],
			"type":"VEC3"
		},
		{
			"bufferView":6,
			"componentType":5126,
			"count":889,
			"type":"VEC3"
		},
		{
			"bufferView":7,
			"componentType":5126,
			"count":889,
			"type":"VEC2"
		},
		{
			"bufferView":8,
			"componentType":5123,
			"count":1920,
			"type":"SCALAR"
		},
		{
			"bufferView":10,
			"componentType":5126,
			"count":384,
			"max":[
				1.2481530904769897,
				1.8464014530181885,
				1.2581530809402466
			],
			"min":[
				-1.2681530714035034,
				1.059999942779541,
				-1.2581530809402466
			],
			"type":"VEC3"
		},
		{
			"bufferView":11,
			"componentType":5126,
			"count":384,
			"type":"VEC3"
		},
		{
			"bufferView":12,
			"componentType":5126,
			"count":384,
			"type":"VEC2"
		},
		{
			"bufferView":13,
			"componentType":5121,
			"count":384,
			"type":"VEC4"
		},
		{
			"bufferView":14,
			"componentType":5126,
			"count":384,
			"type":"VEC4"
		},
		{
			"bufferView":15,
			"componentType":5123,
			"count":564,
			"type":"SCALAR"
		},
		{
			"bufferView":17,
			"componentType":5126,
			"count":3,
			"type":"MAT4"
		},
		{
			"bufferView":18,
			"componentType":5126,
			"count":384,
			"max":[
				0.8822827935218811,
				2.326401472091675,
				0.8942910432815552
			],
			"min":[
				-0.8994425535202026,
				1.5399999618530273,
				-0.8874342441558838
			],
			"type":"VEC3"
		},
		{
			"bufferView":19,
			"componentType":5126,
			"count":384,
			"type":"VEC3"
		},
		{
			"bufferView":20,
			"componentType":5126,
			"count":384,
			"type":"VEC2"
		},
		{
			"bufferView":21,
			"componentType":5121,
			"count":384,
			"type":"VEC4"
		},
		{
			"bufferView":22,
			"componentType":5126,
			"count":384,
			"type":"VEC4"
		},
		{
			"bufferView":23,
			"componentType":5123,
			"count":564,
			"type":"SCALAR"
		},
		{
			"bufferView":24,
			"componentType":5126,
			"count":384,
			"max":[
				1.2530016899108887,
				2.8064017295837402,
				1.2630016803741455
			],
			"min":[
				-1.2633044719696045,
				2.0199999809265137,
				-1.2533044815063477
			],
			"type":"VEC3"
		},
		{
			"bufferView":25,
			"componentType":5126,
			"count":384,
			"type":"VEC3"
		},
		{
			"bufferView":26,
			"componentType":5126,
			"count":384,
			"type":"VEC2"
		},
		{
			"bufferView":27,
			"componentType":5121,
			"count":384,
			"type":"VEC4"
		},
		{
			"bufferView":28,
			"componentType":5126,
			"count":384,
			"type":"VEC4"
		},
		{
			"bufferView":29,
			"componentType":5123,
			"count":564,
			"type":"SCALAR"
		},
		{
			"bufferView":30,
			"componentType":5126,
			"count":2,
			"max":[
				0.4166666666666667
			],
			"min":[
				0.041666666666666664
			],
			"type":"SCALAR"
		},
		{
			"bufferView":31,
			"componentType":5126,
			"count":2,
			"type":"VEC3"
		},
		{
			"bufferView":32,
			"componentType":5126,
			"count":2,
			"type":"VEC4"
		},
		{
			"bufferView":33,
			"componentType":5126,
			"count":10,
			"max":[
				0.4166666666666667
			],
			"min":[
				0.041666666666666664
			],
			"type":"SCALAR"
		},
		{
			"bufferView":34,
			"componentType":5126,
			"count":10,
			"type":"VEC3"
		},
		{
			"bufferView":35,
			"componentType":5126,
			"count":2,
			"type":"VEC3"
		},
		{
			"bufferView":36,
			"componentType":5126,
			"count":2,
			"type":"VEC4"
		},
		{
			"bufferView":37,
			"componentType":5126,
			"count":2,
			"type":"VEC3"
		},
		{
			"bufferView":38,
			"componentType":5126,
			"count":2,
			"type":"VEC3"
		},
		{
			"bufferView":39,
			"componentType":5126,
			"count":2,
			"type":"VEC4"
		},
		{
			"bufferView":40,
			"componentType":5126,
			"count":2,
			"type":"VEC3"
		},
		{
			"bufferView":41,
			"componentType":5126,
			"count":2,
			"type":"VEC3"
		},
		{
			"bufferView":42,
			"componentType":5126,
			"count":2,
			"type":"VEC4"
		},
		{
			"bufferView":43,
			"componentType":5126,
			"count":2,
			"type":"VEC3"
		},
		{
			"bufferView":44,
			"componentType":5126,
			"count":2,
			"type":"VEC3"
		},
		{
			"bufferView":45,
			"componentType":5126,
			"count":2,
			"type":"VEC4"
		},
		{
			"bufferView":46,
			"componentType":5126,
			"count":10,
			"type":"VEC3"
		},
		{
			"bufferView":47,
			"componentType":5126,
			"count":2,
			"type":"VEC3"
		},
		{
			"bufferView":48,
			"componentType":5126,
			"count":2,
			"type":"VEC4"
		},
		{
			"bufferView":49,
			"componentType":5126,
			"count":2,
			"type":"VEC3"
		},
		{
			"bufferView":50,
			"componentType":5126,
			"count":2,
			"type":"VEC3"
		},
		{
			"bufferView":51,
			"componentType":5126,
			"count":2,
			"type":"VEC4"
		},
		{
			"bufferView":52,
			"componentType":5126,
			"count":2,
			"type":"VEC3"
		},
		{
			"bufferView":53,
			"componentType":5126,
			"count":2,
			"type":"VEC3"
		},
		{
			"bufferView":54,
			"componentType":5126,
			"count":2,
			"type":"VEC4"
		},
		{
			"bufferView":55,
			"componentType":5126,
			"count":2,
			"type":"VEC3"
		},
		{
			"bufferView":56,
			"componentType":5126,
			"count":2,
			"type":"VEC3"
		},
		{
			"bufferView":57,
			"componentType":5126,
			"count":2,
			"type":"VEC4"
		},
		{
			"bufferView":58,
			"componentType":5126,
			"count":10,
			"type":"VEC3"
		}
	],
	"bufferViews":[
		{
			"buffer":0,
			"byteLength":9216,
			"byteOffset":0,
			"target":34962
		},
		{
			"buffer":0,
			"byteLength":9216,
			"byteOffset":9216,
			"target":34962
		},
		{
			"buffer":0,
			"byteLength":6144,
			"byteOffset":18432,
			"target":34962
		},
		{
			"buffer":0,
			"byteLength":2280,
			"byteOffset":24576,
			"target":34963
		},
		{
			"buffer":0,
			"byteLength":6507,
			"byteOffset":26856
		},
		{
			"buffer":0,
			"byteLength":10668,
			"byteOffset":33364,
			"target":34962
		},
		{
			"buffer":0,
			"byteLength":10668,
			"byteOffset":44032,
			"target":34962
		},
		{
			"buffer":0,
			"byteLength":7112,
			"byteOffset":54700,
			"target":34962
		},
		{
			"buffer":0,
			"byteLength":3840,
			"byteOffset":61812,
			"target":34963
		},
		{
			"buffer":0,
			"byteLength":4582,
			"byteOffset":65652
		},
		{
			"buffer":0,
			"byteLength":4608,
			"byteOffset":70236,
			"target":34962
		},
		{
			"buffer":0,
			"byteLength":4608,
			"byteOffset":74844,
			"target":34962
		},
		{
			"buffer":0,
			"byteLength":3072,
			"byteOffset":79452,
			"target":34962
		},
		{
			"buffer":0,
			"byteLength":1536,
			"byteOffset":82524,
			"target":34962
		},
		{
			"buffer":0,
			"byteLength":6144,
			"byteOffset":84060,
			"target":34962
		},
		{
			"buffer":0,
			"byteLength":1128,
			"byteOffset":90204,
			"target":34963
		},
		{
			"buffer":0,
			"byteLength":20720,
			"byteOffset":91332
		},
		{
			"buffer":0,
			"byteLength":192,
			"byteOffset":112052
		},
		{
			"buffer":0,
			"byteLength":4608,
			"byteOffset":112244,
			"target":34962
		},
		{
			"buffer":0,
			"byteLength":4608,
			"byteOffset":116852,
			"target":34962
		},
		{
			"buffer":0,
			"byteLength":3072,
			"byteOffset":121460,
			"target":34962
		},
		{
			"buffer":0,
			"byteLength":1536,
			"byteOffset":124532,
			"target":34962
		},
		{
			"buffer":0,
			"byteLength":6144,
			"byteOffset":126068,
			"target":34962
		},
		{
			"buffer":0,
			"byteLength":1128,
			"byteOffset":132212,
			"target":34963
		},
		{
			"buffer":0,
			"byteLength":4608,
			"byteOffset":133340,
			"target":34962
		},
		{
			"buffer":0,
			"byteLength":4608,
			"byteOffset":137948,
			"target":34962
		},
		{
			"buffer":0,
			"byteLength":3072,
			"byteOffset":142556,
			"target":34962
		},
		{
			"buffer":0,
			"byteLength":1536,
			"byteOffset":145628,
			"target":34962
		},
		{
			"buffer":0,
			"byteLength":6144,
			"byteOffset":147164,
			"target":34962
		},
		{
			"buffer":0,
			"byteLength":1128,
			"byteOffset":153308,
			"target":34963
		},
		{
			"buffer":0,
			"byteLength":8,
			"byteOffset":154436
		},
		{
			"buffer":0,
			"byteLength":24,
			"byteOffset":154444
		},
		{
			"buffer":0,
			"byteLength":32,
			"byteOffset":154468
		},
		{
			"buffer":0,
			"byteLength":40,
			"byteOffset":154500
		},
		{
			"buffer":0,
			"byteLength":120,
			"byteOffset":154540
		},
		{
			"buffer":0,
			"byteLength":24,
			"byteOffset":154660
		},
		{
			"buffer":0,
			"byteLength":32,
			"byteOffset":154684
		},
		{
			"buffer":0,
			"byteLength":24,
			"byteOffset":154716
		},
		{
			"buffer":0,
			"byteLength":24,
			"byteOffset":154740
		},
		{
			"buffer":0,
			"byteLength":32,
			"byteOffset":154764
		},
		{
			"buffer":0,
			"byteLength":24,
			"byteOffset":154796
		},
		{
			"buffer":0,
			"byteLength":24,
			"byteOffset":154820
		},
		{
			"buffer":0,
			"byteLength":32,
			"byteOffset":154844
		},
		{
			"buffer":0,
			"byteLength":24,
			"byteOffset":154876
		},
		{
			"buffer":0,
			"byteLength":24,
			"byteOffset":154900
		},
		{
			"buffer":0,
			"byteLength":32,
			"byteOffset":154924
		},
		{
			"buffer":0,
			"byteLength":120,
			"byteOffset":154956
		},
		{
			"buffer":0,
			"byteLength":24,
			"byteOffset":155076
		},
		{
			"buffer":0,
			"byteLength":32,
			"byteOffset":155100
		},
		{
			"buffer":0,
			"byteLength":24,
			"byteOffset":155132
		},
		{
			"buffer":0,
			"byteLength":24,
			"byteOffset":155156
		},
		{
			"buffer":0,
			"byteLength":32,
			"byteOffset":155180
		},
		{
			"buffer":0,
			"byteLength":24,
			"byteOffset":155212
		},
		{
			"buffer":0,
			"byteLength":24,
			"byteOffset":155236
		},
		{
			"buffer":0,
			"byteLength":32,
			"byteOffset":155260
		},
		{
			"buffer":0,
			"byteLength":24,
			"byteOffset":155292
		},
		{
			"buffer":0,
			"byteLength":24,
			"byteOffset":155316
		},
		{
			"buffer":0,
			"byteLength":32,
			"byteOffset":155340
		},
		{
			"buffer":0,
			"byteLength":120,
			"byteOffset":155372
		}
	],
	"samplers":[
		{
			"magFilter":9729,
			"minFilter":9987
		}
	],
	"buffers":[
		{
			"byteLength":155492,
			"uri":"data:application/octet-stream;base64,"
		}
	]
}
