{
	"asset":{
		"generator":"Khronos glTF Blender I/O v3.6.27",
		"version":"2.0"
	},
	"scene":0,
	"scenes":[
		{
			"name":"Scene",
			"nodes":[
				0
			]
		}
	],
	"nodes":[
		{
			"mesh":0,
			"name":"Cylinder",
			"scale":[
				0.30000001192092896,
				0.6000000238418579,
				0.30000001192092896
			]
		}
	],
	"materials":[
		{
			"doubleSided":true,
			"name":"liquid_o2",
			"pbrMetallicRoughness":{
				"baseColorTexture":{
					"index":0
				},
				"metallicFactor":0,
				"roughnessFactor":0.5
			}
		}
	],
	"meshes":[
		{
			"name":"Cylinder",
			"primitives":[
				{
					"attributes":{
						"POSITION":0,
						"NORMAL":1,
						"TEXCOORD_0":2
					},
					"indices":3,
					"material":0
				}
			]
		}
	],
	"textures":[
		{
			"sampler":0,
			"source":0
		}
	],
	"images":[
		{
			"bufferView":4,
			"mimeType":"image/png",
			"name":"liquid_o2"
		}
	],
	"accessors":[
		{
			"bufferView":0,
			"componentType":5126,
			"count":1486,
			"max":[
				1,
				0.860660195350647,
				1
			],
			"min":[
				-1,
				-1,
				-1
			],
			"type":"VEC3"
		},
		{
			"bufferView":1,
			"componentType":5126,
			"count":1486,
			"type":"VEC3"
		},
		{
			"bufferView":2,
			"componentType":5126,
			"count":1486,
			"type":"VEC2"
		},
		{
			"bufferView":3,
			"componentType":5123,
			"count":3636,
			"type":"SCALAR"
		}
	],
	"bufferViews":[
		{
			"buffer":0,
			"byteLength":17832,
			"byteOffset":0,
			"target":34962
		},
		{
			"buffer":0,
			"byteLength":17832,
			"byteOffset":17832,
			"target":34962
		},
		{
			"buffer":0,
			"byteLength":11888,
			"byteOffset":35664,
			"target":34962
		},
		{
			"buffer":0,
			"byteLength":7272,
			"byteOffset":47552,
			"target":34963
		},
		{
			"buffer":0,
			"byteLength":36296,
			"byteOffset":54824
		}
	],
	"samplers":[
		{
			"magFilter":9729,
			"minFilter":9987
		}
	],
	"buffers":[
		{
			"byteLength":91120,
			"uri":"data:application/octet-stream;base64,"
		}
	]
}
