{
	"asset":{
		"generator":"Khronos glTF Blender I/O v3.6.27",
		"version":"2.0"
	},
	"scene":0,
	"scenes":[
		{
			"name":"Scene",
			"nodes":[
				0,
				6
			]
		}
	],
	"nodes":[
		{
			"mesh":0,
			"name":"Cube"
		},
		{
			"name":"Bone.003",
			"rotation":[
				9.830995395532227e-08,
				-4.865846747748037e-08,
				0.39491036534309387,
				0.9187197089195251
			],
			"scale":[
				0.9999999403953552,
				0.9999998807907104,
				1
			],
			"translation":[
				-2.89292074739933e-07,
				1.1418746709823608,
				-7.902318088781612e-08
			]
		},
		{
			"children":[
				1
			],
			"name":"Bone.002",
			"rotation":[
				6.854900647113027e-08,
				-7.535319213047842e-08,
				0.7008807063102722,
				0.7132785320281982
			],
			"scale":[
				1,
				1.0000001192092896,
				0.9999999403953552
			],
			"translation":[
				2.8312206268310547e-07,
				1.1213150024414062,
				9.379478171922528e-08
			]
		},
		{
			"children":[
				2
			],
			"name":"Bone.001",
			"rotation":[
				-4.959576305196833e-09,
				-1.6099026112215142e-08,
				0.3785179853439331,
				0.925593912601471
			],
			"scale":[
				1,
				0.9999999403953552,
				1
			],
			"translation":[
				5.960464477539063e-08,
				1,
				4.470348358154297e-08
			]
		},
		{
			"children":[
				3
			],
			"name":"Bone",
			"rotation":[
				0,
				-1.4901161193847656e-08,
				0,
				1
			],
			"translation":[
				5.960464477539063e-08,
				0,
				4.470348358154297e-08
			]
		},
		{
			"mesh":1,
			"name":"Cylinder",
			"skin":0
		},
		{
			"children":[
				5,
				4
			],
			"name":"Armature",
			"rotation":[
				0,
				-0.3826834261417389,
				0,
				0.9238795638084412
			],
			"scale":[
				0.699999988079071,
				0.699999988079071,
				0.699999988079071
			],
			"translation":[
				0.800000011920929,
				1,
				0.6000000238418579
			]
		}
	],
	"animations":[
		{
			"channels":[
				{
					"sampler":0,
					"target":{
						"node":4,
						"path":"translation"
					}
				},
				{
					"sampler":1,
					"target":{
						"node":4,
						"path":"rotation"
					}
				},
				{
					"sampler":2,
					"target":{
						"node":4,
						"path":"scale"
					}
				},
				{
					"sampler":3,
					"target":{
						"node":3,
						"path":"translation"
					}
				},
				{
					"sampler":4,
					"target":{
						"node":3,
						"path":"rotation"
					}
				},
				{
					"sampler":5,
					"target":{
						"node":3,
						"path":"scale"
					}
				},
				{
					"sampler":6,
					"target":{
						"node":2,
						"path":"translation"
					}
				},
				{
					"sampler":7,
					"target":{
						"node":2,
						"path":"rotation"
					}
				},
				{
					"sampler":8,
					"target":{
						"node":2,
						"path":"scale"
					}
				},
				{
					"sampler":9,
					"target":{
						"node":1,
						"path":"translation"
					}
				},
				{
					"sampler":10,
					"target":{
						"node":1,
						"path":"rotation"
					}
				},
				{
					"sampler":11,
					"target":{
						"node":1,
						"path":"scale"
					}
				}
			],
			"name":"print",
			"samplers":[
				{
					"input":11,
					"interpolation":"STEP",
					"output":12
				},
				{
					"input":13,
					"interpolation":"LINEAR",
					"output":14
				},
				{
					"input":11,
					"interpolation":"STEP",
					"output":15
				},
				{
					"input":11,
					"interpolation":"STEP",
					"output":16
				},
				{
					"input":13,
					"interpolation":"LINEAR",
					"output":17
				},
				{
					"input":11,
					"interpolation":"STEP",
					"output":18
				},
				{
					"input":11,
					"interpolation":"STEP",
					"output":19
				},
				{
					"input":13,
					"interpolation":"LINEAR",
					"output":20
				},
				{
					"input":11,
					"interpolation":"STEP",
					"output":21
				},
				{
					"input":11,
					"interpolation":"STEP",
					"output":22
				},
				{
					"input":13,
					"interpolation":"LINEAR",
					"output":23
				},
				{
					"input":11,
					"interpolation":"STEP",
					"output":24
				}
			]
		}
	],
	"materials":[
		{
			"doubleSided":true,
			"name":"printer_base",
			"pbrMetallicRoughness":{
				"baseColorTexture":{
					"index":0
				},
				"metallicFactor":0,
				"roughnessFactor":0.5
			}
		},
		{
			"doubleSided":true,
			"name":"printer_mat",
			"pbrMetallicRoughness":{
				"baseColorTexture":{
					"index":1
				},
				"metallicFactor":0,
				"roughnessFactor":0.5
			}
		}
	],
	"meshes":[
		{
			"name":"Cube",
			"primitives":[
				{
					"attributes":{
						"POSITION":0,
						"NORMAL":1,
						"TEXCOORD_0":2
					},
					"indices":3,
					"material":0
				}
			]
		},
		{
			"name":"Cylinder",
			"primitives":[
				{
					"attributes":{
						"POSITION":4,
						"NORMAL":5,
						"TEXCOORD_0":6,
						"JOINTS_0":7,
						"WEIGHTS_0":8
					},
					"indices":9,
					"material":1
				}
			]
		}
	],
	"textures":[
		{
			"sampler":0,
			"source":0
		},
		{
			"sampler":0,
			"source":1
		}
	],
	"images":[
		{
			"bufferView":4,
			"mimeType":"image/png",
			"name":"printer_base"
		},
		{
			"bufferView":11,
			"mimeType":"image/png",
			"name":"printer_texture"
		}
	],
	"skins":[
		{
			"inverseBindMatrices":10,
			"joints":[
				4,
				3,
				2,
				1
			],
			"name":"Armature"
		}
	],
	"accessors":[
		{
			"bufferView":0,
			"componentType":5126,
			"count":24,
			"max":[
				1,
				1,
				1
			],
			"min":[
				-1,
				-1,
				-1
			],
			"type":"VEC3"
		},
		{
			"bufferView":1,
			"componentType":5126,
			"count":24,
			"type":"VEC3"
		},
		{
			"bufferView":2,
			"componentType":5126,
			"count":24,
			"type":"VEC2"
		},
		{
			"bufferView":3,
			"componentType":5123,
			"count":36,
			"type":"SCALAR"
		},
		{
			"bufferView":5,
			"componentType":5126,
			"count":6544,
			"max":[
				0.940000057220459,
				2.4000003337860107,
				0.7400001287460327
			],
			"min":[
				-0.13195964694023132,
				1.0063141584396362,
				-0.33195945620536804
			],
			"type":"VEC3"
		},
		{
			"bufferView":6,
			"componentType":5126,
			"count":6544,
			"type":"VEC3"
		},
		{
			"bufferView":7,
			"componentType":5126,
			"count":6544,
			"type":"VEC2"
		},
		{
			"bufferView":8,
			"componentType":5121,
			"count":6544,
			"type":"VEC4"
		},
		{
			"bufferView":9,
			"componentType":5126,
			"count":6544,
			"type":"VEC4"
		},
		{
			"bufferView":10,
			"componentType":5123,
			"count":9774,
			"type":"SCALAR"
		},
		{
			"bufferView":12,
			"componentType":5126,
			"count":4,
			"type":"MAT4"
		},
		{
			"bufferView":13,
			"componentType":5126,
			"count":2,
			"max":[
				1.6666666666666667
			],
			"min":[
				0.041666666666666664
			],
			"type":"SCALAR"
		},
		{
			"bufferView":14,
			"componentType":5126,
			"count":2,
			"type":"VEC3"
		},
		{
			"bufferView":15,
			"componentType":5126,
			"count":40,
			"max":[
				1.6666666666666667
			],
			"min":[
				0.041666666666666664
			],
			"type":"SCALAR"
		},
		{
			"bufferView":16,
			"componentType":5126,
			"count":40,
			"type":"VEC4"
		},
		{
			"bufferView":17,
			"componentType":5126,
			"count":2,
			"type":"VEC3"
		},
		{
			"bufferView":18,
			"componentType":5126,
			"count":2,
			"type":"VEC3"
		},
		{
			"bufferView":19,
			"componentType":5126,
			"count":40,
			"type":"VEC4"
		},
		{
			"bufferView":20,
			"componentType":5126,
			"count":2,
			"type":"VEC3"
		},
		{
			"bufferView":21,
			"componentType":5126,
			"count":2,
			"type":"VEC3"
		},
		{
			"bufferView":22,
			"componentType":5126,
			"count":40,
			"type":"VEC4"
		},
		{
			"bufferView":23,
			"componentType":5126,
			"count":2,
			"type":"VEC3"
		},
		{
			"bufferView":24,
			"componentType":5126,
			"count":2,
			"type":"VEC3"
		},
		{
			"bufferView":25,
			"componentType":5126,
			"count":40,
			"type":"VEC4"
		},
		{
			"bufferView":26,
			"componentType":5126,
			"count":2,
			"type":"VEC3"
		}
	],
	"bufferViews":[
		{
			"buffer":0,
			"byteLength":288,
			"byteOffset":0,
			"target":34962
		},
		{
			"buffer":0,
			"byteLength":288,
			"byteOffset":288,
			"target":34962
		},
		{
			"buffer":0,
			"byteLength":192,
			"byteOffset":576,
			"target":34962
		},
		{
			"buffer":0,
			"byteLength":72,
			"byteOffset":768,
			"target":34963
		},
		{
			"buffer":0,
			"byteLength":20718,
			"byteOffset":840
		},
		{
			"buffer":0,
			"byteLength":78528,
			"byteOffset":21560,
			"target":34962
		},
		{
			"buffer":0,
			"byteLength":78528,
			"byteOffset":100088,
			"target":34962
		},
		{
			"buffer":0,
			"byteLength":52352,
			"byteOffset":178616,
			"target":34962
		},
		{
			"buffer":0,
			"byteLength":26176,
			"byteOffset":230968,
			"target":34962
		},
		{
			"buffer":0,
			"byteLength":104704,
			"byteOffset":257144,
			"target":34962
		},
		{
			"buffer":0,
			"byteLength":19548,
			"byteOffset":361848,
			"target":34963
		},
		{
			"buffer":0,
			"byteLength":37963,
			"byteOffset":381396
		},
		{
			"buffer":0,
			"byteLength":256,
			"byteOffset":419360
		},
		{
			"buffer":0,
			"byteLength":8,
			"byteOffset":419616
		},
		{
			"buffer":0,
			"byteLength":24,
			"byteOffset":419624
		},
		{
			"buffer":0,
			"byteLength":160,
			"byteOffset":419648
		},
		{
			"buffer":0,
			"byteLength":640,
			"byteOffset":419808
		},
		{
			"buffer":0,
			"byteLength":24,
			"byteOffset":420448
		},
		{
			"buffer":0,
			"byteLength":24,
			"byteOffset":420472
		},
		{
			"buffer":0,
			"byteLength":640,
			"byteOffset":420496
		},
		{
			"buffer":0,
			"byteLength":24,
			"byteOffset":421136
		},
		{
			"buffer":0,
			"byteLength":24,
			"byteOffset":421160
		},
		{
			"buffer":0,
			"byteLength":640,
			"byteOffset":421184
		},
		{
			"buffer":0,
			"byteLength":24,
			"byteOffset":421824
		},
		{
			"buffer":0,
			"byteLength":24,
			"byteOffset":421848
		},
		{
			"buffer":0,
			"byteLength":640,
			"byteOffset":421872
		},
		{
			"buffer":0,
			"byteLength":24,
			"byteOffset":422512
		}
	],
	"samplers":[
		{
			"magFilter":9729,
			"minFilter":9987
		}
	],
	"buffers":[
		{
			"byteLength":422536,
			"uri":"data:application/octet-stream;base64,"
		}
	]
}
